<?xml version="1.0" encoding="UTF-8"?>
<svg width="32px" height="32px" viewBox="0 0 32 32" version="1.1" xmlns="http://www.w3.org/2000/svg" xmlns:xlink="http://www.w3.org/1999/xlink">
    <!-- Generator: Sketch 61.2 (89653) - https://sketch.com -->
    <title>Group 151</title>
    <desc>Created with Sketch.</desc>
    <defs>
        <linearGradient x1="50%" y1="0%" x2="50%" y2="100%" id="linearGradient-1">
            <stop stop-color="#FFFFFF" offset="0%"></stop>
            <stop stop-color="#F2F2F2" offset="100%"></stop>
        </linearGradient>
        <linearGradient x1="50%" y1="0%" x2="50%" y2="100%" id="linearGradient-2">
            <stop stop-color="#C063D5" offset="0%"></stop>
            <stop stop-color="#5A1AA9" offset="100%"></stop>
        </linearGradient>
        <linearGradient x1="50%" y1="0%" x2="50%" y2="100%" id="linearGradient-3">
            <stop stop-color="#C063D5" offset="0%"></stop>
            <stop stop-color="#5A1AA9" offset="100%"></stop>
        </linearGradient>
    </defs>
    <g id="UI" stroke="none" stroke-width="1" fill="none" fill-rule="evenodd">
        <g id="logo">
            <g id="Group-151">
                <g id="Oval-1">
                    <g id="path-2-link" fill="#000000" fill-rule="nonzero">
                        <circle id="path-2" cx="16" cy="16" r="16"></circle>
                    </g>
                    <g id="path-2-link" fill="url(#linearGradient-1)">
                        <circle id="path-2" cx="16" cy="16" r="16"></circle>
                    </g>
                </g>
                <g id="Group-89" transform="translate(9.000000, 9.000000)">
                    <g id="V" transform="translate(6.000000, 7.000000) scale(-1, 1) rotate(-180.000000) translate(-6.000000, -7.000000) translate(0.000000, -0.000000)" fill-rule="nonzero">
                        <g id="path-5-link" fill="url(#linearGradient-3)">
                            <path d="M6.53053362,13.4109187 L11.4437866,2.15471406 C11.7898188,1.36195815 11.3983937,0.45101314 10.569514,0.12006143 C10.3710212,0.04080801 10.1580625,0 9.94296722,0 L9.94296722,0 L9.94296722,0 L5.79748178,9.7975904 L1.7094396,0 C0.803191735,0 0.0685327233,0.70264153 0.0685327233,1.56939379 C0.0685327233,1.77260598 0.109796874,1.97388411 0.190033437,2.16204948 L4.98412399,13.404828 C5.15857575,13.8139407 5.64676085,14.0103343 6.07451571,13.8434853 C6.28065119,13.7630806 6.44477023,13.6074016 6.53053362,13.4109187 Z" id="path-5"></path>
                        </g>
                        <g id="path-5-link" fill="#AF57CD">
                            <path d="M6.53053362,13.4109187 L11.4437866,2.15471406 C11.7898188,1.36195815 11.3983937,0.45101314 10.569514,0.12006143 C10.3710212,0.04080801 10.1580625,0 9.94296722,0 L9.94296722,0 L9.94296722,0 L5.79748178,9.7975904 L1.7094396,0 C0.803191735,0 0.0685327233,0.70264153 0.0685327233,1.56939379 C0.0685327233,1.77260598 0.109796874,1.97388411 0.190033437,2.16204948 L4.98412399,13.404828 C5.15857575,13.8139407 5.64676085,14.0103343 6.07451571,13.8434853 C6.28065119,13.7630806 6.44477023,13.6074016 6.53053362,13.4109187 Z" id="path-5"></path>
                        </g>
                    </g>
                    <g id="Oval-2-Copy" transform="translate(5.058937, 8.120000)">
                        <g id="path-7-link" fill="#000000" fill-rule="nonzero">
                            <ellipse id="path-7" cx="0.743961353" cy="0.7" rx="1" ry="1"></ellipse>
                        </g>
                        <g id="path-7-link" fill="#AF57CD">
                            <ellipse id="path-7" cx="0.743961353" cy="0.7" rx="1" ry="1"></ellipse>
                        </g>
                    </g>
                    <g id="Oval-2-Copy" transform="translate(11.903382, 8.120000)">
                        <g id="path-9-link" fill="#000000" fill-rule="nonzero">
                            <ellipse id="path-9" cx="0.743961353" cy="0.7" rx="1" ry="1"></ellipse>
                        </g>
                        <g id="path-9-link" fill="#AF57CD">
                            <ellipse id="path-9" cx="0.743961353" cy="0.7" rx="1" ry="1"></ellipse>
                        </g>
                    </g>
                </g>
            </g>
        </g>
    </g>
</svg>